<?xml version="1.0" encoding="UTF-8" standalone="no"?>
<svg
   width="192"
   height="192"
   viewBox="0 0 192 192"
   version="1.1"
   id="svg1184"
   sodipodi:docname="moon.svg"
   inkscape:version="1.2.2 (b0a8486541, 2022-12-01)"
   xmlns:inkscape="http://www.inkscape.org/namespaces/inkscape"
   xmlns:sodipodi="http://sodipodi.sourceforge.net/DTD/sodipodi-0.dtd"
   xmlns="http://www.w3.org/2000/svg"
   xmlns:svg="http://www.w3.org/2000/svg">
  <defs
     id="defs1188" />
  <sodipodi:namedview
     id="namedview1186"
     pagecolor="#ffffff"
     bordercolor="#000000"
     borderopacity="0.25"
     inkscape:showpageshadow="2"
     inkscape:pageopacity="0.0"
     inkscape:pagecheckerboard="0"
     inkscape:deskcolor="#d1d1d1"
     showgrid="false"
     inkscape:zoom="4.5677083"
     inkscape:cx="95.890536"
     inkscape:cy="96.109464"
     inkscape:window-width="1920"
     inkscape:window-height="1051"
     inkscape:window-x="0"
     inkscape:window-y="29"
     inkscape:window-maximized="1"
     inkscape:current-layer="svg1184" />
  <g
     id="surface1"
     class="moon">
    <path
       style="fill:none;stroke-width:4;stroke-linecap:butt;stroke-linejoin:round;stroke-opacity:1;stroke-miterlimit:4;"
       d="M 28.050781 4.410156 C 22.582031 5.835938 18.546875 10.8125 18.546875 16.726562 C 18.546875 23.757812 24.242188 29.453125 31.273438 29.453125 C 37.1875 29.453125 42.164062 25.417969 43.589844 19.949219 C 43.859375 21.257812 44 22.613281 44 24 C 44 35.046875 35.046875 44 24 44 C 12.953125 44 4 35.046875 4 24 C 4 12.953125 12.953125 4 24 4 C 25.386719 4 26.742188 4.140625 28.050781 4.410156 Z M 28.050781 4.410156 "
       transform="matrix(4,0,0,4,0,0)"
       id="path1181" />
  </g>
</svg>
