<?xml version="1.0" encoding="UTF-8" standalone="no"?>
<svg
   width="192"
   height="192"
   viewBox="0 0 192 192"
   version="1.1"
   id="svg1258"
   sodipodi:docname="snow.svg"
   inkscape:version="1.2.2 (b0a8486541, 2022-12-01)"
   xmlns:inkscape="http://www.inkscape.org/namespaces/inkscape"
   xmlns:sodipodi="http://sodipodi.sourceforge.net/DTD/sodipodi-0.dtd"
   xmlns="http://www.w3.org/2000/svg"
   xmlns:svg="http://www.w3.org/2000/svg">
  <defs
     id="defs1262" />
  <sodipodi:namedview
     id="namedview1260"
     pagecolor="#ffffff"
     bordercolor="#000000"
     borderopacity="0.25"
     inkscape:showpageshadow="2"
     inkscape:pageopacity="0.0"
     inkscape:pagecheckerboard="0"
     inkscape:deskcolor="#d1d1d1"
     showgrid="false"
     inkscape:zoom="4.5677083"
     inkscape:cx="95.890536"
     inkscape:cy="96.109464"
     inkscape:window-width="1920"
     inkscape:window-height="1051"
     inkscape:window-x="0"
     inkscape:window-y="29"
     inkscape:window-maximized="1"
     inkscape:current-layer="surface1" />
  <g
     id="surface1">
    <path
       style="fill:none;stroke-width:4;stroke-linecap:round;stroke-linejoin:round;stroke-opacity:1;stroke-miterlimit:4;"
       d="M 9.453125 30.996094 C 6.140625 28.460938 4 24.429688 4 19.886719 C 4 12.214844 10.105469 6 17.636719 6 C 23.933594 6 29.234375 10.347656 30.800781 16.253906 C 32.035156 15.617188 33.429688 15.257812 34.910156 15.257812 C 39.929688 15.257812 44 19.402344 44 24.511719 C 44 28.308594 41.757812 31.570312 38.546875 33 "
       transform="matrix(4,0,0,4,0,0)"
       id="path1243"
       class="cloud-dark" />
    <path
       style="fill:none;stroke-width:4;stroke-linecap:round;stroke-linejoin:round;stroke-opacity:1;stroke-miterlimit:4;"
       d="M 18 23 L 18 29 "
       transform="matrix(4,0,0,4,0,0)"
       id="path1245"
       class="snow" />
    <path
       style="fill:none;stroke-width:4;stroke-linecap:round;stroke-linejoin:round;stroke-opacity:1;stroke-miterlimit:4;"
       d="M 15 26 L 21 26 "
       transform="matrix(4,0,0,4,0,0)"
       id="path1247"
       class="snow" />
    <path
       style="fill:none;stroke-width:4;stroke-linecap:round;stroke-linejoin:round;stroke-opacity:1;stroke-miterlimit:4;"
       d="M 31 26 L 31 32 "
       transform="matrix(4,0,0,4,0,0)"
       id="path1249"
       class="snow" />
    <path
       style="fill:none;stroke-width:4;stroke-linecap:round;stroke-linejoin:round;stroke-opacity:1;stroke-miterlimit:4;"
       d="M 28 29 L 34 29 "
       transform="matrix(4,0,0,4,0,0)"
       id="path1251"
       class="snow" />
    <path
       style="fill:none;stroke-width:4;stroke-linecap:round;stroke-linejoin:round;stroke-opacity:1;stroke-miterlimit:4;"
       d="M 24 36 L 24 42 "
       transform="matrix(4,0,0,4,0,0)"
       id="path1253"
       class="snow" />
    <path
       style="fill:none;stroke-width:4;stroke-linecap:round;stroke-linejoin:round;stroke-opacity:1;stroke-miterlimit:4;"
       d="M 21 39 L 27 39 "
       transform="matrix(4,0,0,4,0,0)"
       id="path1255"
       class="snow" />
  </g>
</svg>
