<?xml version="1.0" encoding="UTF-8" standalone="no"?>
<svg
   width="192"
   height="192"
   viewBox="0 0 192 192"
   version="1.1"
   id="svg107"
   sodipodi:docname="sun.svg"
   inkscape:version="1.2.2 (b0a8486541, 2022-12-01)"
   xmlns:inkscape="http://www.inkscape.org/namespaces/inkscape"
   xmlns:sodipodi="http://sodipodi.sourceforge.net/DTD/sodipodi-0.dtd"
   xmlns="http://www.w3.org/2000/svg"
   xmlns:svg="http://www.w3.org/2000/svg">
  <defs
     id="defs111" />
  <sodipodi:namedview
     id="namedview109"
     pagecolor="#ffffff"
     bordercolor="#000000"
     borderopacity="0.25"
     inkscape:showpageshadow="2"
     inkscape:pageopacity="0.0"
     inkscape:pagecheckerboard="0"
     inkscape:deskcolor="#d1d1d1"
     showgrid="false"
     inkscape:zoom="4.5677083"
     inkscape:cx="60.314709"
     inkscape:cy="96.109464"
     inkscape:window-width="1920"
     inkscape:window-height="1051"
     inkscape:window-x="0"
     inkscape:window-y="29"
     inkscape:window-maximized="1"
     inkscape:current-layer="svg107" />
  <g
     id="sun"
     class="sun">
    <path
       style="fill:none;stroke-width:4;stroke-linecap:round;stroke-linejoin:round;stroke-opacity:1;stroke-miterlimit:4;"
       d="M 9.148438 9.152344 L 11.378906 11.378906 "
       transform="matrix(4,0,0,4,0,0)"
       id="path88" />
    <path
       style="fill:none;stroke-width:4;stroke-linecap:round;stroke-linejoin:round;stroke-opacity:1;stroke-miterlimit:4;"
       d="M 3 24 L 6.148438 24 "
       transform="matrix(4,0,0,4,0,0)"
       id="path90" />
    <path
       style="fill:none;stroke-width:4;stroke-linecap:round;stroke-linejoin:round;stroke-opacity:1;stroke-miterlimit:4;"
       d="M 9.148438 38.847656 L 11.378906 36.621094 "
       transform="matrix(4,0,0,4,0,0)"
       id="path92" />
    <path
       style="fill:none;stroke-width:4;stroke-linecap:round;stroke-linejoin:round;stroke-opacity:1;stroke-miterlimit:4;"
       d="M 38.847656 38.847656 L 36.621094 36.621094 "
       transform="matrix(4,0,0,4,0,0)"
       id="path94" />
    <path
       style="fill:none;stroke-width:4;stroke-linecap:round;stroke-linejoin:round;stroke-opacity:1;stroke-miterlimit:4;"
       d="M 45 24 L 41.847656 24 "
       transform="matrix(4,0,0,4,0,0)"
       id="path96" />
    <path
       style="fill:none;stroke-width:4;stroke-linecap:round;stroke-linejoin:round;stroke-opacity:1;stroke-miterlimit:4;"
       d="M 38.847656 9.152344 L 36.621094 11.378906 "
       transform="matrix(4,0,0,4,0,0)"
       id="path98" />
    <path
       style="fill:none;stroke-width:4;stroke-linecap:round;stroke-linejoin:round;stroke-opacity:1;stroke-miterlimit:4;"
       d="M 24 3 L 24 6.148438 "
       transform="matrix(4,0,0,4,0,0)"
       id="path100" />
    <path
       style="fill-rule:nonzero;fill-opacity:1;stroke-width:4;stroke-linecap:butt;stroke-linejoin:round;stroke-opacity:1;stroke-miterlimit:4;"
       d="M 24 36 C 30.628906 36 36 30.628906 36 24 C 36 17.371094 30.628906 12 24 12 C 17.371094 12 12 17.371094 12 24 C 12 30.628906 17.371094 36 24 36 Z M 24 36 "
       transform="matrix(4,0,0,4,0,0)"
       id="path102" />
    <path
       style="fill:none;stroke-width:4;stroke-linecap:round;stroke-linejoin:round;stroke-opacity:1;stroke-miterlimit:4;"
       d="M 24 45 L 24 41.851562 "
       transform="matrix(4,0,0,4,0,0)"
       id="path104" />
  </g>
</svg>
