<?xml version="1.0" encoding="UTF-8"?>
<svg xmlns="http://www.w3.org/2000/svg" xmlns:xlink="http://www.w3.org/1999/xlink" width="192" height="192" viewBox="0 0 192 192" version="1.1">
<g id="surface1">
<path style="fill:none;stroke-width:4;stroke-linecap:round;stroke-linejoin:round;stroke:rgb(20%,20%,20%);stroke-opacity:1;stroke-miterlimit:4;" d="M 44 8 L 4 8 L 4 38 L 19 38 L 24 43 L 29 38 L 44 38 Z M 44 8 " transform="matrix(4,0,0,4,0,0)"/>
<path style="fill:none;stroke-width:4;stroke-linecap:round;stroke-linejoin:round;stroke:rgb(20%,20%,20%);stroke-opacity:1;stroke-miterlimit:4;" d="M 29 19 C 29 21.761719 26.761719 24 24 24 C 21.238281 24 19 21.761719 19 19 C 19 16.238281 21.238281 14 24 14 C 26.761719 14 29 16.238281 29 19 Z M 29 19 " transform="matrix(4,0,0,4,0,0)"/>
<path style="fill:none;stroke-width:4;stroke-linecap:round;stroke-linejoin:round;stroke:rgb(20%,20%,20%);stroke-opacity:1;stroke-miterlimit:4;" d="M 33 32 C 33 27.582031 28.96875 24 24 24 C 19.03125 24 15 27.582031 15 32 " transform="matrix(4,0,0,4,0,0)"/>
</g>
</svg>
