<?xml version="1.0" encoding="UTF-8" standalone="yes"?>
<svg xmlns="http://www.w3.org/2000/svg" xmlns:xlink="http://www.w3.org/1999/xlink" width="192" height="192" viewBox="0 0 192 192">
  <path fill="none" stroke-width="4" stroke-linecap="round" stroke-linejoin="round" stroke="#D3C6AA" stroke-opacity="1" stroke-miterlimit="4" d="M 4 5 L 44 5 L 44 31 L 4 31 Z M 4 5 " transform="matrix(4, 0, 0, 4, 0, 0)"/>
  <path fill="none" stroke-width="4" stroke-linecap="round" stroke-linejoin="round" stroke="#D3C6AA" stroke-opacity="1" stroke-miterlimit="4" d="M 22 14 L 28 18 L 22 22 Z M 22 14 " transform="matrix(4, 0, 0, 4, 0, 0)"/>
  <path fill="none" stroke-width="4" stroke-linecap="round" stroke-linejoin="round" stroke="#D3C6AA" stroke-opacity="1" stroke-miterlimit="4" d="M 11 40 L 6 40 " transform="matrix(4, 0, 0, 4, 0, 0)"/>
  <path fill="none" stroke-width="4" stroke-linecap="round" stroke-linejoin="round" stroke="#D3C6AA" stroke-opacity="1" stroke-miterlimit="4" d="M 17 40 L 42 40 " transform="matrix(4, 0, 0, 4, 0, 0)"/>
  <path fill="none" stroke-width="4" stroke-linecap="round" stroke-linejoin="round" stroke="#D3C6AA" stroke-opacity="1" stroke-miterlimit="4" d="M 17 40 C 17 41.657227 15.657227 43 14 43 C 12.342773 43 11 41.657227 11 40 C 11 38.342773 12.342773 37 14 37 C 15.657227 37 17 38.342773 17 40 Z M 17 40 " transform="matrix(4, 0, 0, 4, 0, 0)"/>
</svg>