<?xml version="1.0" encoding="UTF-8" standalone="yes"?>
<svg xmlns="http://www.w3.org/2000/svg" xmlns:xlink="http://www.w3.org/1999/xlink" width="192" height="192" viewBox="0 0 192 192">
  <path fill="none" stroke-width="4" stroke-linecap="round" stroke-linejoin="round" stroke="#D3C6AA" stroke-opacity="1" stroke-miterlimit="4" d="M 16 4 C 14 4 11 5 11 9 C 11 13 11 15 11 18 C 11 21 6 23 6 23 C 6 23 11 25 11 28 C 11 31 11 35 11 39 C 11 43 14 44 16 44 " transform="matrix(4, 0, 0, 4, 0, 0)"/>
  <path fill="none" stroke-width="4" stroke-linecap="round" stroke-linejoin="round" stroke="#D3C6AA" stroke-opacity="1" stroke-miterlimit="4" d="M 32 4 C 34 4 37 5 37 9 C 37 13 37 15 37 18 C 37 21 42 23 42 23 C 42 23 37 25 37 28 C 37 31 37 35 37 39 C 37 43 34 44 32 44 " transform="matrix(4, 0, 0, 4, 0, 0)"/>
</svg>