<?xml version="1.0" encoding="UTF-8"?>
<svg xmlns="http://www.w3.org/2000/svg" xmlns:xlink="http://www.w3.org/1999/xlink" width="192" height="192" viewBox="0 0 192 192" version="1.1">
<g id="surface1">
<path style="fill:none;stroke-width:4;stroke-linecap:butt;stroke-linejoin:round;stroke:rgb(20%,20%,20%);stroke-opacity:1;stroke-miterlimit:4;" d="M 30 34.5 C 30 32.566406 31.566406 31 33.5 31 L 41 31 L 41 34.398438 C 41 36.386719 39.386719 38 37.398438 38 L 33.5 38 C 31.566406 38 30 36.433594 30 34.5 Z M 30 34.5 " transform="matrix(4,0,0,4,0,0)"/>
<path style="fill:none;stroke-width:4;stroke-linecap:butt;stroke-linejoin:round;stroke:rgb(20%,20%,20%);stroke-opacity:1;stroke-miterlimit:4;" d="M 6 38.5 C 6 36.566406 7.566406 35 9.5 35 L 16 35 L 16 38.398438 C 16 40.386719 14.386719 42 12.398438 42 L 9.5 42 C 7.566406 42 6 40.433594 6 38.5 Z M 6 38.5 " transform="matrix(4,0,0,4,0,0)"/>
<path style="fill:none;stroke-width:4;stroke-linecap:round;stroke-linejoin:round;stroke:rgb(20%,20%,20%);stroke-opacity:1;stroke-miterlimit:4;" d="M 16 18.042969 L 41 12.125 " transform="matrix(4,0,0,4,0,0)"/>
<path style="fill:none;stroke-width:4;stroke-linecap:round;stroke-linejoin:round;stroke:rgb(20%,20%,20%);stroke-opacity:1;stroke-miterlimit:4;" d="M 16 38 L 16 10 L 41 4 L 41 33.691406 " transform="matrix(4,0,0,4,0,0)"/>
</g>
</svg>
