<?xml version="1.0" encoding="UTF-8" standalone="yes"?>
<svg xmlns="http://www.w3.org/2000/svg" xmlns:xlink="http://www.w3.org/1999/xlink" width="192" height="192" viewBox="0 0 192 192">
  <path fill="none" stroke-width="4" stroke-linecap="butt" stroke-linejoin="round" stroke="#D3C6AA" stroke-opacity="1" stroke-miterlimit="4" d="M 24 6 L 24 42 C 17 42 11.798828 32.838867 11.798828 32.838867 L 6 32.838867 C 4.895508 32.838867 4 31.943359 4 30.838867 L 4 17.010742 C 4 15.90625 4.895508 15.010742 6 15.010742 L 11.798828 15.010742 C 11.798828 15.010742 17 6 24 6 Z M 24 6 " transform="matrix(4, 0, 0, 4, 0, 0)"/>
  <path fill="none" stroke-width="4" stroke-linecap="round" stroke-linejoin="round" stroke="#D3C6AA" stroke-opacity="1" stroke-miterlimit="4" d="M 32 15 C 32.623047 15.556641 33.188477 16.179688 33.68457 16.858398 C 35.138672 18.850586 36 21.322266 36 24 C 36 26.654297 35.15332 29.106445 33.72168 31.088867 C 33.216797 31.788086 32.638672 32.429688 32 33 " transform="matrix(4, 0, 0, 4, 0, 0)"/>
  <path fill="none" stroke-width="4" stroke-linecap="round" stroke-linejoin="miter" stroke="#D3C6AA" stroke-opacity="1" stroke-miterlimit="4" d="M 34.236328 41.185547 C 40.083984 37.695312 44 31.304688 44 24 C 44 16.808594 40.204102 10.503906 34.506836 6.979492 " transform="matrix(4, 0, 0, 4, 0, 0)"/>
</svg>