<?xml version="1.0" encoding="UTF-8" standalone="yes"?>
<svg xmlns="http://www.w3.org/2000/svg" xmlns:xlink="http://www.w3.org/1999/xlink" width="192" height="192" viewBox="0 0 192 192">
  <path fill="none" stroke-width="4" stroke-linecap="round" stroke-linejoin="round" stroke="#D3C6AA" stroke-opacity="1" stroke-miterlimit="4" d="M 15 14 L 6 14 C 4.895508 14 4 14.895508 4 16 L 4 32 C 4 33.104492 4.895508 34 6 34 L 15 34 " transform="matrix(4, 0, 0, 4, 0, 0)"/>
  <path fill="none" stroke-width="4" stroke-linecap="round" stroke-linejoin="round" stroke="#D3C6AA" stroke-opacity="1" stroke-miterlimit="4" d="M 29 34 L 38 34 C 39.104492 34 40 33.104492 40 32 L 40 16 C 40 14.895508 39.104492 14 38 14 L 29 14 " transform="matrix(4, 0, 0, 4, 0, 0)"/>
  <path fill-rule="nonzero" fill="#D3C6AA" fill-opacity="1" d="M 168 80 L 176 80 C 180.417969 80 184 83.582031 184 88 L 184 104 C 184 108.417969 180.417969 112 176 112 L 168 112 Z M 168 80 "/>
  <path fill="none" stroke-width="4" stroke-linecap="round" stroke-linejoin="round" stroke="#D3C6AA" stroke-opacity="1" stroke-miterlimit="4" d="M 22 28 L 22 14 " transform="matrix(4, 0, 0, 4, 0, 0)"/>
  <path fill-rule="nonzero" fill="#D3C6AA" fill-opacity="1" d="M 88 128 C 83.582031 128 80 131.582031 80 136 C 80 140.417969 83.582031 144 88 144 C 92.417969 144 96 140.417969 96 136 C 96 131.582031 92.417969 128 88 128 Z M 88 128 "/>
  <path fill-rule="nonzero" fill="#E67E80" fill-opacity="1" d="M 85.847656 119.644531 C 83.082031 118.847656 80.824219 116.429688 80.246094 113.65625 C 80.078125 112.851562 80.054688 108.914062 80.085938 83.601562 L 80.117188 54.476562 L 80.410156 53.628906 C 81.261719 51.140625 83.28125 49.144531 85.714844 48.390625 C 86.992188 47.992188 89 47.992188 90.273438 48.390625 C 92.777344 49.171875 94.5625 50.921875 95.582031 53.59375 L 95.871094 54.347656 L 95.90625 83.570312 C 95.945312 116.097656 96.007812 113.707031 95.058594 115.625 C 94.140625 117.46875 92.039062 119.152344 89.992188 119.679688 C 88.925781 119.957031 86.867188 119.9375 85.847656 119.644531 Z M 85.847656 119.644531 "/>
  <path fill-rule="nonzero" fill="#E67E80" fill-opacity="1" d="M 86.609375 143.832031 C 83.089844 143.199219 80.355469 140.136719 80.09375 136.535156 C 79.816406 132.75 82.382812 129.222656 86.101562 128.28125 C 87.097656 128.03125 88.894531 128.03125 89.886719 128.28125 C 92.761719 129.011719 95.0625 131.363281 95.75 134.269531 C 96.144531 135.960938 95.871094 138.007812 95.019531 139.679688 C 94.09375 141.503906 92.238281 143.027344 90.207031 143.628906 C 89.324219 143.894531 87.507812 143.996094 86.609375 143.832031 Z M 86.609375 143.832031 "/>
  <path fill-rule="nonzero" fill="#E67E80" fill-opacity="1" d="M 114.582031 143.824219 C 111.574219 143.316406 108.875 140.691406 108.238281 137.652344 C 107.859375 135.851562 108.085938 134.179688 108.941406 132.449219 C 109.863281 130.59375 111.398438 129.230469 113.378906 128.507812 L 114.355469 128.152344 L 133.195312 128.117188 L 152.039062 128.082031 L 152.039062 63.917969 L 133.195312 63.882812 L 114.355469 63.847656 L 113.378906 63.492188 C 111.398438 62.769531 109.863281 61.40625 108.941406 59.550781 C 107.40625 56.453125 107.902344 53.058594 110.253906 50.589844 C 111.261719 49.53125 112.152344 48.949219 113.53125 48.445312 L 114.484375 48.097656 L 134.203125 48.097656 C 156.070312 48.097656 154.601562 48.042969 157.203125 48.945312 C 162.773438 50.875 166.972656 55.960938 167.777344 61.757812 C 167.976562 63.164062 167.976562 128.835938 167.777344 130.242188 C 166.964844 136.085938 162.640625 141.269531 157.046875 143.105469 C 154.480469 143.949219 156.125 143.886719 134.726562 143.914062 C 123.8125 143.929688 114.964844 143.890625 114.582031 143.824219 Z M 114.582031 143.824219 "/>
  <path fill-rule="nonzero" fill="#E67E80" fill-opacity="1" d="M 22.585938 143.886719 C 16.015625 143.121094 10.898438 139.039062 8.851562 132.925781 C 8.027344 130.460938 8.070312 132.609375 8.070312 96 C 8.070312 59.351562 8.023438 61.542969 8.859375 59.046875 C 10.445312 54.316406 14.203125 50.5 18.816406 48.941406 C 21.480469 48.039062 19.933594 48.097656 41.71875 48.097656 L 61.375 48.097656 L 62.285156 48.386719 C 64.800781 49.183594 66.804688 51.1875 67.59375 53.695312 C 67.9375 54.789062 67.992188 56.957031 67.699219 57.992188 C 66.910156 60.804688 64.757812 62.953125 62.023438 63.652344 C 61.03125 63.90625 60.574219 63.914062 42.480469 63.914062 L 23.953125 63.914062 L 23.953125 128.085938 L 42.480469 128.085938 C 60.574219 128.085938 61.03125 128.09375 62.023438 128.347656 C 64.757812 129.046875 66.914062 131.195312 67.699219 134.007812 C 67.992188 135.042969 67.9375 137.210938 67.59375 138.304688 C 66.816406 140.773438 64.859375 142.753906 62.351562 143.613281 L 61.503906 143.902344 L 42.238281 143.917969 C 31.644531 143.925781 22.800781 143.910156 22.585938 143.886719 Z M 22.585938 143.886719 "/>
  <path fill-rule="nonzero" fill="#E67E80" fill-opacity="1" d="M 168.039062 106.683594 C 168.035156 103.777344 168.03125 98.972656 168.03125 96 C 168.03125 93.027344 168.035156 88.222656 168.039062 85.316406 L 168.046875 80.035156 L 172.832031 80.085938 C 178.0625 80.136719 177.972656 80.125 179.710938 81.003906 C 181.660156 81.992188 183.214844 84 183.730469 86.195312 C 184.019531 87.417969 184.019531 104.582031 183.730469 105.804688 C 183.214844 108.003906 181.660156 110.007812 179.710938 110.996094 C 177.972656 111.875 178.0625 111.863281 172.832031 111.917969 L 168.046875 111.964844 Z M 168.039062 106.683594 "/>
</svg>