<?xml version="1.0" encoding="UTF-8" standalone="yes"?>
<svg xmlns="http://www.w3.org/2000/svg" xmlns:xlink="http://www.w3.org/1999/xlink" width="192" height="192" viewBox="0 0 192 192">
  <path fill="none" stroke-width="4" stroke-linecap="round" stroke-linejoin="round" stroke="#D3C6AA" stroke-opacity="1" stroke-miterlimit="4" d="M 13 14 L 6 14 C 4.895508 14 4 14.895508 4 16 L 4 32 C 4 33.104492 4.895508 34 6 34 L 13 34 " transform="matrix(4, 0, 0, 4, 0, 0)"/>
  <path fill="none" stroke-width="4" stroke-linecap="round" stroke-linejoin="round" stroke="#D3C6AA" stroke-opacity="1" stroke-miterlimit="4" d="M 31 34 L 38 34 C 39.104492 34 40 33.104492 40 32 L 40 16 C 40 14.895508 39.104492 14 38 14 L 31 14 " transform="matrix(4, 0, 0, 4, 0, 0)"/>
  <path fill-rule="nonzero" fill="#D3C6AA" fill-opacity="1" d="M 168 80 L 176 80 C 180.417969 80 184 83.582031 184 88 L 184 104 C 184 108.417969 180.417969 112 176 112 L 168 112 Z M 168 80 "/>
  <path fill="none" stroke-width="4" stroke-linecap="round" stroke-linejoin="round" stroke="#D3C6AA" stroke-opacity="1" stroke-miterlimit="4" d="M 22.039062 28.157227 L 22.039062 24.611328 C 24.538086 24.611328 26.564453 22.230469 26.564453 19.292969 C 26.564453 16.355469 24.538086 13.974609 22.039062 13.974609 C 19.540039 13.974609 17.513672 16.355469 17.513672 19.292969 " transform="matrix(4, 0, 0, 4, 0, 0)"/>
  <path fill-rule="nonzero" fill="#D3C6AA" fill-opacity="1" stroke-width="0.8" stroke-linecap="butt" stroke-linejoin="miter" stroke="#D3C6AA" stroke-opacity="1" stroke-miterlimit="4" d="M 23.599609 34 C 23.599609 34.883789 22.883789 35.599609 22 35.599609 C 21.116211 35.599609 20.400391 34.883789 20.400391 34 C 20.400391 33.116211 21.116211 32.400391 22 32.400391 C 22.883789 32.400391 23.599609 33.116211 23.599609 34 Z M 23.599609 34 " transform="matrix(4, 0, 0, 4, 0, 0)"/>
</svg>