<?xml version="1.0" encoding="UTF-8"?>
<svg xmlns="http://www.w3.org/2000/svg" xmlns:xlink="http://www.w3.org/1999/xlink" width="192" height="192" viewBox="0 0 192 192" version="1.1">
<g id="surface1">
<path style="fill:none;stroke-width:4;stroke-linecap:round;stroke-linejoin:round;stroke:#A7C080;stroke-opacity:1;stroke-miterlimit:4;" d="M 44 11 C 44 11 44 36.0625 44 38 C 44 41.3125 35.046875 44 24 44 C 12.953125 44 4 41.3125 4 38 C 4 36.140625 4 11 4 11 " transform="matrix(4,0,0,4,0,0)"/>
<path style="fill:none;stroke-width:4;stroke-linecap:round;stroke-linejoin:round;stroke:#A7C080;stroke-opacity:1;stroke-miterlimit:4;" d="M 44 29 C 44 32.3125 35.046875 35 24 35 C 12.953125 35 4 32.3125 4 29 " transform="matrix(4,0,0,4,0,0)"/>
<path style="fill:none;stroke-width:4;stroke-linecap:round;stroke-linejoin:round;stroke:#A7C080;stroke-opacity:1;stroke-miterlimit:4;" d="M 44 20 C 44 23.3125 35.046875 26 24 26 C 12.953125 26 4 23.3125 4 20 " transform="matrix(4,0,0,4,0,0)"/>
<path style="fill:none;stroke-width:4;stroke-linecap:round;stroke-linejoin:round;stroke:#A7C080;stroke-opacity:1;stroke-miterlimit:4;" d="M 44 10 C 44 13.3125 35.046875 16 24 16 C 12.953125 16 4 13.3125 4 10 C 4 6.6875 12.953125 4 24 4 C 35.046875 4 44 6.6875 44 10 Z M 44 10 " transform="matrix(4,0,0,4,0,0)"/>
</g>
</svg>
