<?xml version="1.0" encoding="UTF-8"?>
<svg xmlns="http://www.w3.org/2000/svg" xmlns:xlink="http://www.w3.org/1999/xlink" width="192" height="192" viewBox="0 0 192 192" version="1.1">
<g id="surface1">
<path style="fill:none;stroke-width:4;stroke-linecap:butt;stroke-linejoin:round;stroke:#E67E80;stroke-opacity:1;stroke-miterlimit:4;" d="M 18 26 L 18 10 C 18 6.6875 20.6875 4 24 4 C 27.3125 4 30 6.6875 30 10 L 30 26 C 32.429688 27.824219 34 30.726562 34 34 C 34 39.523438 29.523438 44 24 44 C 18.476562 44 14 39.523438 14 34 C 14 30.726562 15.570312 27.824219 18 26 Z M 18 26 " transform="matrix(4,0,0,4,0,0)"/>
<path style="fill:none;stroke-width:4;stroke-linecap:round;stroke-linejoin:round;stroke:#E67E80;stroke-opacity:1;stroke-miterlimit:4;" d="M 24 17 L 24 30 " transform="matrix(4,0,0,4,0,0)"/>
<path style="fill:none;stroke-width:4;stroke-linecap:butt;stroke-linejoin:round;stroke:#E67E80;stroke-opacity:1;stroke-miterlimit:4;" d="M 24 38 C 26.210938 38 28 36.210938 28 34 C 28 31.789062 26.210938 30 24 30 C 21.789062 30 20 31.789062 20 34 C 20 36.210938 21.789062 38 24 38 Z M 24 38 " transform="matrix(4,0,0,4,0,0)"/>
</g>
</svg>
