<?xml version="1.0" encoding="UTF-8" standalone="no"?>
<svg
   width="192"
   height="192"
   viewBox="0 0 192 192"
   version="1.1"
   id="svg4240"
   sodipodi:docname="wifi-disconnected.svg"
   inkscape:version="1.2.2 (b0a8486541, 2022-12-01)"
   xmlns:inkscape="http://www.inkscape.org/namespaces/inkscape"
   xmlns:sodipodi="http://sodipodi.sourceforge.net/DTD/sodipodi-0.dtd"
   xmlns="http://www.w3.org/2000/svg"
   xmlns:svg="http://www.w3.org/2000/svg">
  <defs
     id="defs4244" />
  <sodipodi:namedview
     id="namedview4242"
     pagecolor="#ffffff"
     bordercolor="#000000"
     borderopacity="0.25"
     inkscape:showpageshadow="2"
     inkscape:pageopacity="0.0"
     inkscape:pagecheckerboard="0"
     inkscape:deskcolor="#d1d1d1"
     showgrid="false"
     inkscape:zoom="7.6822917"
     inkscape:cx="96.065085"
     inkscape:cy="96.130169"
     inkscape:window-width="3840"
     inkscape:window-height="2105"
     inkscape:window-x="0"
     inkscape:window-y="55"
     inkscape:window-maximized="1"
     inkscape:current-layer="svg4240" />
  <path
     fill="none"
     stroke-width="4"
     stroke-linecap="round"
     stroke-linejoin="round"
     stroke="#D3C6AA"
     stroke-opacity="1"
     stroke-miterlimit="4"
     d="M 44 18.964844 C 37.225586 12.544922 28.119141 10.005859 19.5 11.347656 "
     transform="matrix(4, 0, 0, 4, 0, 0)"
     id="path4226" />
  <path
     fill="none"
     stroke-width="4"
     stroke-linecap="round"
     stroke-linejoin="round"
     stroke="#D3C6AA"
     stroke-opacity="1"
     stroke-miterlimit="4"
     d="M 38 25.798828 C 35.286133 23.085938 31.981445 21.324219 28.5 20.515625 "
     transform="matrix(4, 0, 0, 4, 0, 0)"
     id="path4228" />
  <path
     fill="none"
     stroke-width="4"
     stroke-linecap="round"
     stroke-linejoin="round"
     stroke="#D3C6AA"
     stroke-opacity="1"
     stroke-miterlimit="4"
     d="M 10 25.798828 C 11.327148 24.47168 12.796875 23.37207 14.359375 22.5 "
     transform="matrix(4, 0, 0, 4, 0, 0)"
     id="path4230" />
  <path
     fill="none"
     stroke-width="4"
     stroke-linecap="round"
     stroke-linejoin="round"
     stroke="#D3C6AA"
     stroke-opacity="1"
     stroke-miterlimit="4"
     d="M 16 32.313477 C 17.438477 30.875 19.168945 29.905273 21 29.40332 "
     transform="matrix(4, 0, 0, 4, 0, 0)"
     id="path4232" />
  <path
     fill-rule="evenodd"
     fill="#D3C6AA"
     fill-opacity="1"
     d="M 96 160 C 101.523438 160 106 155.523438 106 150 C 106 144.476562 101.523438 140 96 140 C 90.476562 140 86 144.476562 86 150 C 86 155.523438 90.476562 160 96 160 Z M 96 160 "
     id="path4234" />
  <path
     fill="none"
     stroke-width="4"
     stroke-linecap="round"
     stroke-linejoin="round"
     stroke="#D3C6AA"
     stroke-opacity="1"
     stroke-miterlimit="4"
     d="M 40 40 L 8 8 "
     transform="matrix(4, 0, 0, 4, 0, 0)"
     id="path4236" />
  <path
     fill="none"
     stroke-width="4"
     stroke-linecap="round"
     stroke-linejoin="round"
     stroke="#D3C6AA"
     stroke-opacity="1"
     stroke-miterlimit="4"
     d="M 4 18.964844 C 4.588867 18.407227 5.195312 17.878906 5.817383 17.378906 C 6.366211 16.938477 6.927734 16.520508 7.5 16.125977 "
     transform="matrix(4, 0, 0, 4, 0, 0)"
     id="path4238" />
</svg>
