<?xml version="1.0" encoding="UTF-8" standalone="no"?>
<svg
   width="192"
   height="192"
   viewBox="0 0 192 192"
   version="1.1"
   id="svg3681"
   sodipodi:docname="wifi-high.svg"
   inkscape:version="1.2.2 (b0a8486541, 2022-12-01)"
   xmlns:inkscape="http://www.inkscape.org/namespaces/inkscape"
   xmlns:sodipodi="http://sodipodi.sourceforge.net/DTD/sodipodi-0.dtd"
   xmlns="http://www.w3.org/2000/svg"
   xmlns:svg="http://www.w3.org/2000/svg">
  <defs
     id="defs3685" />
  <sodipodi:namedview
     id="namedview3683"
     pagecolor="#ffffff"
     bordercolor="#000000"
     borderopacity="0.25"
     inkscape:showpageshadow="2"
     inkscape:pageopacity="0.0"
     inkscape:pagecheckerboard="0"
     inkscape:deskcolor="#d1d1d1"
     showgrid="false"
     inkscape:zoom="7.6822917"
     inkscape:cx="96.065085"
     inkscape:cy="96.130169"
     inkscape:window-width="3840"
     inkscape:window-height="2105"
     inkscape:window-x="0"
     inkscape:window-y="55"
     inkscape:window-maximized="1"
     inkscape:current-layer="svg3681" />
  <path
     fill="none"
     stroke-width="4"
     stroke-linecap="round"
     stroke-linejoin="round"
     stroke="#D3C6AA"
     stroke-opacity="1"
     stroke-miterlimit="4"
     d="M 4 18.964844 C 4.588867 18.407227 5.195312 17.878906 5.817383 17.378906 C 17.037109 8.374023 33.381836 8.90332 44 18.964844 "
     transform="matrix(4, 0, 0, 4, 0, 0)"
     id="path3673" />
  <path
     fill="none"
     stroke-width="4"
     stroke-linecap="round"
     stroke-linejoin="round"
     stroke="#D3C6AA"
     stroke-opacity="1"
     stroke-miterlimit="4"
     d="M 38 25.798828 C 30.267578 18.067383 17.732422 18.067383 10 25.798828 "
     transform="matrix(4, 0, 0, 4, 0, 0)"
     id="path3675" />
  <path
     fill="none"
     stroke-width="4"
     stroke-linecap="round"
     stroke-linejoin="round"
     stroke="#D3C6AA"
     stroke-opacity="1"
     stroke-miterlimit="4"
     d="M 32 32.313477 C 27.582031 27.895508 20.417969 27.895508 16 32.313477 "
     transform="matrix(4, 0, 0, 4, 0, 0)"
     id="path3677" />
  <path
     fill-rule="evenodd"
     fill="#D3C6AA"
     fill-opacity="1"
     d="M 96 160 C 101.523438 160 106 155.523438 106 150 C 106 144.476562 101.523438 140 96 140 C 90.476562 140 86 144.476562 86 150 C 86 155.523438 90.476562 160 96 160 Z M 96 160 "
     id="path3679" />
</svg>
