<?xml version="1.0" encoding="UTF-8" standalone="no"?>
<svg
   width="192"
   height="192"
   viewBox="0 0 192 192"
   version="1.1"
   id="svg764"
   sodipodi:docname="brightness-high.svg"
   inkscape:version="1.2.2 (b0a8486541, 2022-12-01)"
   xmlns:inkscape="http://www.inkscape.org/namespaces/inkscape"
   xmlns:sodipodi="http://sodipodi.sourceforge.net/DTD/sodipodi-0.dtd"
   xmlns="http://www.w3.org/2000/svg"
   xmlns:svg="http://www.w3.org/2000/svg">
  <defs
     id="defs768" />
  <sodipodi:namedview
     id="namedview766"
     pagecolor="#ffffff"
     bordercolor="#000000"
     borderopacity="0.25"
     inkscape:showpageshadow="2"
     inkscape:pageopacity="0.0"
     inkscape:pagecheckerboard="0"
     inkscape:deskcolor="#d1d1d1"
     showgrid="false"
     inkscape:zoom="7.0853226"
     inkscape:cx="115.16766"
     inkscape:cy="109.87503"
     inkscape:window-width="3784"
     inkscape:window-height="2049"
     inkscape:window-x="28"
     inkscape:window-y="83"
     inkscape:window-maximized="0"
     inkscape:current-layer="svg764" />
  <path
     fill="none"
     stroke-width="4"
     stroke-linecap="butt"
     stroke-linejoin="round"
     stroke="#D3C6AA"
     stroke-opacity="1"
     stroke-miterlimit="4"
     d="M 24.020508 35.353516 C 30.095703 35.353516 35.020508 30.428711 35.020508 24.353516 C 35.020508 18.27832 30.095703 13.353516 24.020508 13.353516 C 17.945312 13.353516 13.020508 18.27832 13.020508 24.353516 C 13.020508 30.428711 17.945312 35.353516 24.020508 35.353516 Z M 24.020508 35.353516 "
     transform="matrix(4, 0, 0, 4, 0, 0)"
     id="path744" />
  <path
     fill="none"
     stroke-width="4"
     stroke-linecap="round"
     stroke-linejoin="miter"
     stroke="#D3C6AA"
     stroke-opacity="1"
     stroke-miterlimit="4"
     d="M 38.959961 9.009766 L 36.5 11.484375 "
     transform="matrix(4, 0, 0, 4, 0, 0)"
     id="path746" />
  <path
     fill="none"
     stroke-width="4"
     stroke-linecap="round"
     stroke-linejoin="miter"
     stroke="#D3C6AA"
     stroke-opacity="1"
     stroke-miterlimit="4"
     d="M 11.067383 36.745117 L 9.020508 38.803711 "
     transform="matrix(4, 0, 0, 4, 0, 0)"
     id="path748" />
  <path
     fill="none"
     stroke-width="4"
     stroke-linecap="round"
     stroke-linejoin="miter"
     stroke="#D3C6AA"
     stroke-opacity="1"
     stroke-miterlimit="4"
     d="M 24 41.353516 L 24 44.353516 "
     transform="matrix(4, 0, 0, 4, 0, 0)"
     id="path750" />
  <path
     fill="none"
     stroke-width="4"
     stroke-linecap="round"
     stroke-linejoin="miter"
     stroke="#D3C6AA"
     stroke-opacity="1"
     stroke-miterlimit="4"
     d="M 44 23.353516 L 40 23.353516 "
     transform="matrix(4, 0, 0, 4, 0, 0)"
     id="path752" />
  <path
     fill="none"
     stroke-width="4"
     stroke-linecap="round"
     stroke-linejoin="miter"
     stroke="#D3C6AA"
     stroke-opacity="1"
     stroke-miterlimit="4"
     d="M 37.532227 36.335938 L 40 38.803711 "
     transform="matrix(4, 0, 0, 4, 0, 0)"
     id="path754" />
  <path
     fill-rule="evenodd"
     fill="#eeeeee"
     fill-opacity="1"
     d="m 96.08203,69.414062 c -15.464842,0 -27.999999,12.535157 -27.999999,28 0,15.464848 12.535157,27.999998 27.999999,27.999998"
     id="path756" />
  <path
     fill-rule="evenodd"
     fill="#eeeeee"
     fill-opacity="1"
     d="m 96.052332,125.42484 c 15.464838,0 27.999998,-12.53516 27.999998,-28.000001 0,-15.464853 -12.53516,-28.000001 -27.999998,-28.000001"
     id="path756-3" />
  <path
     fill="none"
     stroke-width="4"
     stroke-linecap="round"
     stroke-linejoin="miter"
     stroke="#D3C6AA"
     stroke-opacity="1"
     stroke-miterlimit="4"
     d="M 4 24.353516 L 8 24.353516 "
     transform="matrix(4, 0, 0, 4, 0, 0)"
     id="path758" />
  <path
     fill="none"
     stroke-width="4"
     stroke-linecap="round"
     stroke-linejoin="miter"
     stroke="#D3C6AA"
     stroke-opacity="1"
     stroke-miterlimit="4"
     d="M 10.043945 9.009766 L 12.097656 11.0625 "
     transform="matrix(4, 0, 0, 4, 0, 0)"
     id="path760" />
  <path
     fill="none"
     stroke-width="4"
     stroke-linecap="round"
     stroke-linejoin="miter"
     stroke="#D3C6AA"
     stroke-opacity="1"
     stroke-miterlimit="4"
     d="M 24 3.353516 L 24 7.353516 "
     transform="matrix(4, 0, 0, 4, 0, 0)"
     id="path762" />
</svg>
