<?xml version="1.0" encoding="UTF-8"?>
<svg xmlns="http://www.w3.org/2000/svg" xmlns:xlink="http://www.w3.org/1999/xlink" width="192" height="192" viewBox="0 0 192 192" version="1.1">
<g id="surface1">
<path style="fill:none;stroke-width:4;stroke-linecap:butt;stroke-linejoin:round;stroke:#D3C6AA;stroke-opacity:1;stroke-miterlimit:4;" d="M 5.696289 10.891601 L 41.696288 10.891601 C 42.801757 10.891601 43.696288 11.786132 43.696288 12.891601 L 43.696288 32.891601 C 43.696288 33.997069 42.801757 34.891601 41.696288 34.891601 L 5.696289 34.891601 C 4.59082 34.891601 3.696289 33.997069 3.696289 32.891601 L 3.696289 12.891601 C 3.696289 11.786132 4.59082 10.891601 5.696289 10.891601 Z M 5.696289 10.891601 " transform="matrix(4,0,0,4,0,0)"/>
<path style=" stroke:none;fill-rule:nonzero;fill:#D3C6AA;fill-opacity:1;" d="M 62.785156 67.566406 C 62.785156 71.988281 59.207031 75.566406 54.785156 75.566406 C 50.363281 75.566406 46.785156 71.988281 46.785156 67.566406 C 46.785156 63.144531 50.363281 59.566406 54.785156 59.566406 C 59.207031 59.566406 62.785156 63.144531 62.785156 67.566406 Z M 62.785156 67.566406 "/>
<path style=" stroke:none;fill-rule:nonzero;fill:#D3C6AA;fill-opacity:1;" d="M 70.785156 91.566406 C 70.785156 95.988281 67.207031 99.566406 62.785156 99.566406 C 58.363281 99.566406 54.785156 95.988281 54.785156 91.566406 C 54.785156 87.144531 58.363281 83.566406 62.785156 83.566406 C 67.207031 83.566406 70.785156 87.144531 70.785156 91.566406 Z M 70.785156 91.566406 "/>
<path style=" stroke:none;fill-rule:nonzero;fill:#D3C6AA;fill-opacity:1;" d="M 46.785156 91.566406 C 46.785156 95.988281 43.207031 99.566406 38.785156 99.566406 C 34.363281 99.566406 30.785156 95.988281 30.785156 91.566406 C 30.785156 87.144531 34.363281 83.566406 38.785156 83.566406 C 43.207031 83.566406 46.785156 87.144531 46.785156 91.566406 Z M 46.785156 91.566406 "/>
<path style=" stroke:none;fill-rule:nonzero;fill:#D3C6AA;fill-opacity:1;" d="M 86.785156 67.566406 C 86.785156 71.988281 83.207031 75.566406 78.785156 75.566406 C 74.363281 75.566406 70.785156 71.988281 70.785156 67.566406 C 70.785156 63.144531 74.363281 59.566406 78.785156 59.566406 C 83.207031 59.566406 86.785156 63.144531 86.785156 67.566406 Z M 86.785156 67.566406 "/>
<path style=" stroke:none;fill-rule:nonzero;fill:#D3C6AA;fill-opacity:1;" d="M 94.785156 91.566406 C 94.785156 95.988281 91.207031 99.566406 86.785156 99.566406 C 82.363281 99.566406 78.785156 95.988281 78.785156 91.566406 C 78.785156 87.144531 82.363281 83.566406 86.785156 83.566406 C 91.207031 83.566406 94.785156 87.144531 94.785156 91.566406 Z M 94.785156 91.566406 "/>
<path style=" stroke:none;fill-rule:nonzero;fill:#D3C6AA;fill-opacity:1;" d="M 110.785156 67.566406 C 110.785156 71.988281 107.207031 75.566406 102.785156 75.566406 C 98.363281 75.566406 94.785156 71.988281 94.785156 67.566406 C 94.785156 63.144531 98.363281 59.566406 102.785156 59.566406 C 107.207031 59.566406 110.785156 63.144531 110.785156 67.566406 Z M 110.785156 67.566406 "/>
<path style=" stroke:none;fill-rule:nonzero;fill:#D3C6AA;fill-opacity:1;" d="M 118.785156 91.566406 C 118.785156 95.988281 115.207031 99.566406 110.785156 99.566406 C 106.363281 99.566406 102.785156 95.988281 102.785156 91.566406 C 102.785156 87.144531 106.363281 83.566406 110.785156 83.566406 C 115.207031 83.566406 118.785156 87.144531 118.785156 91.566406 Z M 118.785156 91.566406 "/>
<path style=" stroke:none;fill-rule:nonzero;fill:#D3C6AA;fill-opacity:1;" d="M 134.785156 67.566406 C 134.785156 71.988281 131.207031 75.566406 126.785156 75.566406 C 122.363281 75.566406 118.785156 71.988281 118.785156 67.566406 C 118.785156 63.144531 122.363281 59.566406 126.785156 59.566406 C 131.207031 59.566406 134.785156 63.144531 134.785156 67.566406 Z M 134.785156 67.566406 "/>
<path style=" stroke:none;fill-rule:nonzero;fill:#D3C6AA;fill-opacity:1;" d="M 142.785156 91.566406 C 142.785156 95.988281 139.207031 99.566406 134.785156 99.566406 C 130.363281 99.566406 126.785156 95.988281 126.785156 91.566406 C 126.785156 87.144531 130.363281 83.566406 134.785156 83.566406 C 139.207031 83.566406 142.785156 87.144531 142.785156 91.566406 Z M 142.785156 91.566406 "/>
<path style=" stroke:none;fill-rule:nonzero;fill:#D3C6AA;fill-opacity:1;" d="M 158.785156 67.566406 C 158.785156 71.988281 155.207031 75.566406 150.785156 75.566406 C 146.363281 75.566406 142.785156 71.988281 142.785156 67.566406 C 142.785156 63.144531 146.363281 59.566406 150.785156 59.566406 C 155.207031 59.566406 158.785156 63.144531 158.785156 67.566406 Z M 158.785156 67.566406 "/>
<path style="fill:none;stroke-width:4;stroke-linecap:round;stroke-linejoin:round;stroke:#D3C6AA;stroke-opacity:1;stroke-miterlimit:4;" d="M 16.696289 28.891601 L 30.696288 28.891601 " transform="matrix(4,0,0,4,0,0)"/>
</g>
</svg>
