<?xml version="1.0" encoding="UTF-8" standalone="no"?>
<svg
   width="192"
   height="192"
   viewBox="0 0 192 192"
   version="1.1"
   id="svg144"
   sodipodi:docname="browser.svg"
   inkscape:version="1.2.2 (b0a8486541, 2022-12-01)"
   xmlns:inkscape="http://www.inkscape.org/namespaces/inkscape"
   xmlns:sodipodi="http://sodipodi.sourceforge.net/DTD/sodipodi-0.dtd"
   xmlns="http://www.w3.org/2000/svg"
   xmlns:svg="http://www.w3.org/2000/svg">
  <defs
     id="defs148" />
  <sodipodi:namedview
     id="namedview146"
     pagecolor="#ffffff"
     bordercolor="#000000"
     borderopacity="0.25"
     inkscape:showpageshadow="2"
     inkscape:pageopacity="0.0"
     inkscape:pagecheckerboard="0"
     inkscape:deskcolor="#d1d1d1"
     showgrid="false"
     inkscape:zoom="4.5677083"
     inkscape:cx="96"
     inkscape:cy="96.218928"
     inkscape:window-width="1920"
     inkscape:window-height="1050"
     inkscape:window-x="0"
     inkscape:window-y="30"
     inkscape:window-maximized="1"
     inkscape:current-layer="svg144" />
  <g
     id="surface1"
     transform="matrix(-1,0,0,1,192,0)">
    <path
       style="fill:none;stroke:#333333;stroke-width:4;stroke-linecap:round;stroke-linejoin:round;stroke-miterlimit:4;stroke-opacity:1"
       d="m 42,18 v 22 c 0,1.105469 -0.894531,2 -2,2 H 8 C 6.894531,42 6,41.105469 6,40 V 18"
       transform="scale(4)"
       id="path133" />
    <path
       style="fill:none;stroke:#333333;stroke-width:4;stroke-linecap:butt;stroke-linejoin:round;stroke-miterlimit:4;stroke-opacity:1"
       d="M 6,8 C 6,6.894531 6.894531,6 8,6 h 32 c 1.105469,0 2,0.894531 2,2 V 18 H 6 Z m 0,0"
       transform="scale(4)"
       id="path135" />
    <path
       style="fill:#333333;fill-opacity:1;fill-rule:evenodd;stroke:none"
       d="m 48,56 c 4.421875,0 8,-3.578125 8,-8 0,-4.421875 -3.578125,-8 -8,-8 -4.421875,0 -8,3.578125 -8,8 0,4.421875 3.578125,8 8,8 z m 0,0"
       id="path137" />
    <path
       style="fill:#333333;fill-opacity:1;fill-rule:evenodd;stroke:none"
       d="m 72,56 c 4.421875,0 8,-3.578125 8,-8 0,-4.421875 -3.578125,-8 -8,-8 -4.421875,0 -8,3.578125 -8,8 0,4.421875 3.578125,8 8,8 z m 0,0"
       id="path139" />
    <path
       style="fill:#333333;fill-opacity:1;fill-rule:evenodd;stroke:none"
       d="m 96,56 c 4.42188,0 8,-3.578125 8,-8 0,-4.421875 -3.57812,-8 -8,-8 -4.421875,0 -8,3.578125 -8,8 0,4.421875 3.578125,8 8,8 z m 0,0"
       id="path141" />
  </g>
</svg>
