<?xml version="1.0" encoding="UTF-8" standalone="no"?>
<svg
   width="192"
   height="192"
   viewBox="0 0 192 192"
   version="1.1"
   id="svg187"
   sodipodi:docname="floating2.svg"
   inkscape:version="1.2.2 (b0a8486541, 2022-12-01)"
   xmlns:inkscape="http://www.inkscape.org/namespaces/inkscape"
   xmlns:sodipodi="http://sodipodi.sourceforge.net/DTD/sodipodi-0.dtd"
   xmlns="http://www.w3.org/2000/svg"
   xmlns:svg="http://www.w3.org/2000/svg">
  <defs
     id="defs191" />
  <sodipodi:namedview
     id="namedview189"
     pagecolor="#ffffff"
     bordercolor="#000000"
     borderopacity="0.25"
     inkscape:showpageshadow="2"
     inkscape:pageopacity="0.0"
     inkscape:pagecheckerboard="0"
     inkscape:deskcolor="#d1d1d1"
     showgrid="false"
     inkscape:zoom="4.5677083"
     inkscape:cx="96"
     inkscape:cy="96.218928"
     inkscape:window-width="1920"
     inkscape:window-height="1050"
     inkscape:window-x="0"
     inkscape:window-y="30"
     inkscape:window-maximized="1"
     inkscape:current-layer="svg187" />
  <g
     id="surface1"
     transform="matrix(-1,0,0,1,192,0)">
    <path
       style="fill:none;stroke:#333333;stroke-width:4;stroke-linecap:round;stroke-linejoin:round;stroke-miterlimit:4;stroke-opacity:1"
       d="M 5,41 V 21 c 0,-1.105469 0.894531,-2 2,-2 h 20 c 1.105469,0 2,0.894531 2,2 v 20 c 0,1.105469 -0.894531,2 -2,2 H 7 C 5.894531,43 5,42.105469 5,41 Z m 0,0"
       transform="scale(4)"
       id="path182" />
    <path
       style="fill:none;stroke:#333333;stroke-width:4;stroke-linecap:round;stroke-linejoin:round;stroke-miterlimit:4;stroke-opacity:1"
       d="m 43,7 v 20 c 0,1.105469 -0.894531,2 -2,2 H 31 c -1.105469,0 -2,-0.894531 -2,-2 v -6 c 0,-1.105469 -0.894531,-2 -2,-2 h -6 c -1.105469,0 -2,-0.894531 -2,-2 V 7 c 0,-1.105469 0.894531,-2 2,-2 h 20 c 1.105469,0 2,0.894531 2,2 z m 0,0"
       transform="scale(4)"
       id="path184" />
  </g>
</svg>
