<?xml version="1.0" encoding="UTF-8"?>
<svg xmlns="http://www.w3.org/2000/svg" xmlns:xlink="http://www.w3.org/1999/xlink" width="192" height="192" viewBox="0 0 192 192" version="1.1">
<g id="surface1">
<path style="fill:none;stroke-width:4;stroke-linecap:butt;stroke-linejoin:round;stroke:rgb(20%,20%,20%);stroke-opacity:1;stroke-miterlimit:4;" d="M 18 6 L 8 6 C 6.894531 6 6 6.894531 6 8 L 6 18 C 6 19.105469 6.894531 20 8 20 L 18 20 C 19.105469 20 20 19.105469 20 18 L 20 8 C 20 6.894531 19.105469 6 18 6 Z M 18 6 " transform="matrix(4,0,0,4,0,0)"/>
<path style="fill:none;stroke-width:4;stroke-linecap:butt;stroke-linejoin:round;stroke:rgb(20%,20%,20%);stroke-opacity:1;stroke-miterlimit:4;" d="M 18 28 L 8 28 C 6.894531 28 6 28.894531 6 30 L 6 40 C 6 41.105469 6.894531 42 8 42 L 18 42 C 19.105469 42 20 41.105469 20 40 L 20 30 C 20 28.894531 19.105469 28 18 28 Z M 18 28 " transform="matrix(4,0,0,4,0,0)"/>
<path style="fill:none;stroke-width:4;stroke-linecap:butt;stroke-linejoin:round;stroke:rgb(20%,20%,20%);stroke-opacity:1;stroke-miterlimit:4;" d="M 40 6 L 30 6 C 28.894531 6 28 6.894531 28 8 L 28 18 C 28 19.105469 28.894531 20 30 20 L 40 20 C 41.105469 20 42 19.105469 42 18 L 42 8 C 42 6.894531 41.105469 6 40 6 Z M 40 6 " transform="matrix(4,0,0,4,0,0)"/>
<path style="fill:none;stroke-width:4;stroke-linecap:butt;stroke-linejoin:round;stroke:rgb(20%,20%,20%);stroke-opacity:1;stroke-miterlimit:4;" d="M 40 28 L 30 28 C 28.894531 28 28 28.894531 28 30 L 28 40 C 28 41.105469 28.894531 42 30 42 L 40 42 C 41.105469 42 42 41.105469 42 40 L 42 30 C 42 28.894531 41.105469 28 40 28 Z M 40 28 " transform="matrix(4,0,0,4,0,0)"/>
</g>
</svg>
